<svg xmlns="http://www.w3.org/2000/svg" width="66" height="23" viewBox="0 0 66 23">
  <g id="Path_190" data-name="Path 190" fill="none">
    <path d="M33,0C51.225,0,66,5.149,66,11.5S51.225,23,33,23,0,17.851,0,11.5,14.775,0,33,0Z" stroke="none"/>
    <path d="M 33 2 C 24.40367126464844 2 16.35037994384766 3.156650543212891 10.32363128662109 5.256879806518555 C 5.189430236816406 7.046070098876953 2 9.438300132751465 2 11.5 C 2 13.56169986724854 5.189430236816406 15.95392990112305 10.32363128662109 17.74312019348145 C 16.35037994384766 19.84334945678711 24.40367126464844 21 33 21 C 41.59632873535156 21 49.64962005615234 19.84334945678711 55.67636871337891 17.74312019348145 C 60.81056976318359 15.95392990112305 64 13.56169986724854 64 11.5 C 64 9.438300132751465 60.81056976318359 7.046070098876953 55.67636871337891 5.256879806518555 C 49.64962005615234 3.156650543212891 41.59632873535156 2 33 2 M 33 0 C 51.22539138793945 0 66 5.14872932434082 66 11.5 C 66 17.85127067565918 51.22539138793945 23 33 23 C 14.77460098266602 23 0 17.85127067565918 0 11.5 C 0 5.14872932434082 14.77460098266602 0 33 0 Z" stroke="none" fill="#10519a"/>
  </g>
</svg>
