<svg xmlns="http://www.w3.org/2000/svg" width="63" height="23" viewBox="0 0 63 23">
  <g id="Group_77" data-name="Group 77" transform="translate(-183.657 -304)">
    <g id="Path_191" data-name="Path 191" transform="translate(183.657 304)" fill="none">
      <path d="M11.5,0h40a11.5,11.5,0,0,1,0,23h-40a11.5,11.5,0,0,1,0-23Z" stroke="none"/>
      <path d="M 11.5 2 C 6.261680603027344 2 2 6.261680603027344 2 11.5 C 2 16.73831939697266 6.261680603027344 21 11.5 21 L 51.5 21 C 56.73831939697266 21 61 16.73831939697266 61 11.5 C 61 6.261680603027344 56.73831939697266 2 51.5 2 L 11.5 2 M 11.5 0 C 11.5 0 13.35953903198242 0 23.35953903198242 0 C 33.35954284667969 0 51.5 0 51.5 0 C 57.85128021240234 0 63 5.14872932434082 63 11.5 C 63 17.85127067565918 57.85128021240234 23 51.5 23 L 11.5 23 C 5.148719787597656 23 0 17.85127067565918 0 11.5 C 0 5.14872932434082 5.148719787597656 0 11.5 0 Z" stroke="none" fill="#10519a"/>
    </g>
    <line id="Line_21" data-name="Line 21" y2="23" transform="translate(215.657 304)" fill="none" stroke="#10519a" stroke-width="2"/>
    <g id="Ellipse_236" data-name="Ellipse 236" transform="translate(191.657 310)" fill="none" stroke="#10519a" stroke-width="2">
      <circle cx="0.5" cy="0.5" r="0.5" stroke="none"/>
      <circle cx="0.5" cy="0.5" r="0.5" fill="none"/>
    </g>
    <g id="Ellipse_249" data-name="Ellipse 249" transform="translate(193.657 311)" fill="none" stroke="#10519a" stroke-width="2">
      <ellipse cx="1.5" cy="0.5" rx="1.5" ry="0.5" stroke="none"/>
      <ellipse cx="1.5" cy="0.5" rx="0.5" ry="0.5" fill="none"/>
    </g>
    <g id="Ellipse_243" data-name="Ellipse 243" transform="translate(191.657 312)" fill="none" stroke="#10519a" stroke-width="2">
      <circle cx="0.5" cy="0.5" r="0.5" stroke="none"/>
      <circle cx="0.5" cy="0.5" r="0.5" fill="none"/>
    </g>
    <g id="Ellipse_248" data-name="Ellipse 248" transform="translate(189.657 314)" fill="none" stroke="#10519a" stroke-width="2">
      <ellipse cx="0.5" cy="1.5" rx="0.5" ry="1.5" stroke="none"/>
      <ellipse cx="0.5" cy="1.5" rx="0.5" ry="0.5" fill="none"/>
    </g>
    <g id="Ellipse_242" data-name="Ellipse 242" transform="translate(191.657 314)" fill="none" stroke="#10519a" stroke-width="2">
      <ellipse cx="0.5" cy="1.5" rx="0.5" ry="1.5" stroke="none"/>
      <ellipse cx="0.5" cy="1.5" rx="0.5" ry="0.5" fill="none"/>
    </g>
    <g id="Ellipse_240" data-name="Ellipse 240" transform="translate(190.657 308)" fill="none" stroke="#10519a" stroke-width="2">
      <ellipse cx="0.5" cy="1" rx="0.5" ry="1" stroke="none"/>
      <ellipse cx="0.5" cy="1" rx="0.5" fill="none"/>
    </g>
    <g id="Ellipse_247" data-name="Ellipse 247" transform="translate(189.657 317)" fill="none" stroke="#10519a" stroke-width="2">
      <circle cx="0.5" cy="0.5" r="0.5" stroke="none"/>
      <circle cx="0.5" cy="0.5" r="0.5" fill="none"/>
    </g>
    <g id="Ellipse_290" data-name="Ellipse 290" transform="translate(190.657 318)" fill="none" stroke="#10519a" stroke-width="2">
      <ellipse cx="0.5" cy="1" rx="0.5" ry="1" stroke="none"/>
      <ellipse cx="0.5" cy="1" rx="0.5" fill="none"/>
    </g>
    <g id="Ellipse_289" data-name="Ellipse 289" transform="translate(186.657 317)" fill="none" stroke="#10519a" stroke-width="2">
      <ellipse cx="1" cy="0.5" rx="1" ry="0.5" stroke="none"/>
      <ellipse cx="1" cy="0.5" ry="0.5" fill="none"/>
    </g>
    <g id="Ellipse_288" data-name="Ellipse 288" transform="translate(189.657 320)" fill="none" stroke="#10519a" stroke-width="2">
      <circle cx="0.5" cy="0.5" r="0.5" stroke="none"/>
      <circle cx="0.5" cy="0.5" r="0.5" fill="none"/>
    </g>
    <g id="Ellipse_239" data-name="Ellipse 239" transform="translate(193.657 307)" fill="none" stroke="#10519a" stroke-width="2">
      <ellipse cx="1.5" cy="0.5" rx="1.5" ry="0.5" stroke="none"/>
      <ellipse cx="1.5" cy="0.5" rx="0.5" ry="0.5" fill="none"/>
    </g>
    <g id="Ellipse_252" data-name="Ellipse 252" transform="translate(198.657 307)" fill="none" stroke="#10519a" stroke-width="2">
      <circle cx="0.5" cy="0.5" r="0.5" stroke="none"/>
      <circle cx="0.5" cy="0.5" r="0.5" fill="none"/>
    </g>
    <g id="Ellipse_258" data-name="Ellipse 258" transform="translate(196.657 311)" fill="none" stroke="#10519a" stroke-width="2">
      <ellipse cx="1" cy="0.5" rx="1" ry="0.5" stroke="none"/>
      <ellipse cx="1" cy="0.5" ry="0.5" fill="none"/>
    </g>
    <g id="Ellipse_292" data-name="Ellipse 292" transform="translate(192.657 317)" fill="none" stroke="#10519a" stroke-width="2">
      <circle cx="0.5" cy="0.5" r="0.5" stroke="none"/>
      <circle cx="0.5" cy="0.5" r="0.5" fill="none"/>
    </g>
    <g id="Ellipse_291" data-name="Ellipse 291" transform="translate(191.657 321)" fill="none" stroke="#10519a" stroke-width="2">
      <circle cx="0.5" cy="0.5" r="0.5" stroke="none"/>
      <circle cx="0.5" cy="0.5" r="0.5" fill="none"/>
    </g>
    <g id="Ellipse_274" data-name="Ellipse 274" transform="translate(207.657 317)" fill="none" stroke="#10519a" stroke-width="2">
      <circle cx="0.5" cy="0.5" r="0.5" stroke="none"/>
      <circle cx="0.5" cy="0.5" r="0.5" fill="none"/>
    </g>
    <g id="Ellipse_262" data-name="Ellipse 262" transform="translate(201.657 313)" fill="none" stroke="#10519a" stroke-width="2">
      <ellipse cx="1" cy="0.5" rx="1" ry="0.5" stroke="none"/>
      <ellipse cx="1" cy="0.5" ry="0.5" fill="none"/>
    </g>
    <g id="Ellipse_257" data-name="Ellipse 257" transform="translate(206.657 307)" fill="none" stroke="#10519a" stroke-width="2">
      <circle cx="0.5" cy="0.5" r="0.5" stroke="none"/>
      <circle cx="0.5" cy="0.5" r="0.5" fill="none"/>
    </g>
    <g id="Ellipse_267" data-name="Ellipse 267" transform="translate(205.657 310)" fill="none" stroke="#10519a" stroke-width="2">
      <circle cx="0.5" cy="0.5" r="0.5" stroke="none"/>
      <circle cx="0.5" cy="0.5" r="0.5" fill="none"/>
    </g>
    <g id="Ellipse_266" data-name="Ellipse 266" transform="translate(203.657 307)" fill="none" stroke="#10519a" stroke-width="2">
      <ellipse cx="1" cy="0.5" rx="1" ry="0.5" stroke="none"/>
      <ellipse cx="1" cy="0.5" ry="0.5" fill="none"/>
    </g>
    <g id="Ellipse_265" data-name="Ellipse 265" transform="translate(212.657 307)" fill="none" stroke="#10519a" stroke-width="2">
      <ellipse cy="0.5" ry="0.5" stroke="none"/>
      <ellipse cy="0.5" rx="1" ry="0.5" fill="none"/>
    </g>
    <g id="Ellipse_284" data-name="Ellipse 284" transform="translate(212.657 310)" fill="none" stroke="#10519a" stroke-width="2">
      <ellipse cy="0.5" ry="0.5" stroke="none"/>
      <ellipse cy="0.5" rx="1" ry="0.5" fill="none"/>
    </g>
    <g id="Ellipse_264" data-name="Ellipse 264" transform="translate(203.657 312)" fill="none" stroke="#10519a" stroke-width="2">
      <ellipse cx="1" cy="0.5" rx="1" ry="0.5" stroke="none"/>
      <ellipse cx="1" cy="0.5" ry="0.5" fill="none"/>
    </g>
    <g id="Ellipse_256" data-name="Ellipse 256" transform="translate(200.657 307)" fill="none" stroke="#10519a" stroke-width="2">
      <circle cx="0.5" cy="0.5" r="0.5" stroke="none"/>
      <circle cx="0.5" cy="0.5" r="0.5" fill="none"/>
    </g>
    <g id="Ellipse_255" data-name="Ellipse 255" transform="translate(199.657 312)" fill="none" stroke="#10519a" stroke-width="2">
      <circle cx="0.5" cy="0.5" r="0.5" stroke="none"/>
      <circle cx="0.5" cy="0.5" r="0.5" fill="none"/>
    </g>
    <g id="Ellipse_272" data-name="Ellipse 272" transform="translate(212.657 318)" fill="none" stroke="#10519a" stroke-width="2">
      <ellipse cy="1" ry="1" stroke="none"/>
      <ellipse cy="1" rx="1" fill="none"/>
    </g>
    <g id="Ellipse_254" data-name="Ellipse 254" transform="translate(200.657 310)" fill="none" stroke="#10519a" stroke-width="2">
      <circle cx="0.5" cy="0.5" r="0.5" stroke="none"/>
      <circle cx="0.5" cy="0.5" r="0.5" fill="none"/>
    </g>
    <g id="Ellipse_279" data-name="Ellipse 279" transform="translate(212.657 317)" fill="none" stroke="#10519a" stroke-width="2">
      <circle stroke="none"/>
      <circle r="1" fill="none"/>
    </g>
    <g id="Ellipse_263" data-name="Ellipse 263" transform="translate(207.657 313)" fill="none" stroke="#10519a" stroke-width="2">
      <circle cx="0.5" cy="0.5" r="0.5" stroke="none"/>
      <circle cx="0.5" cy="0.5" r="0.5" fill="none"/>
    </g>
    <g id="Ellipse_268" data-name="Ellipse 268" transform="translate(208.657 308)" fill="none" stroke="#10519a" stroke-width="2">
      <ellipse cx="0.5" cy="1" rx="0.5" ry="1" stroke="none"/>
      <ellipse cx="0.5" cy="1" rx="0.5" fill="none"/>
    </g>
    <g id="Ellipse_283" data-name="Ellipse 283" transform="translate(208.657 311)" fill="none" stroke="#10519a" stroke-width="2">
      <circle cx="0.5" cy="0.5" r="0.5" stroke="none"/>
      <circle cx="0.5" cy="0.5" r="0.5" fill="none"/>
    </g>
    <g id="Ellipse_253" data-name="Ellipse 253" transform="translate(198.657 310)" fill="none" stroke="#10519a" stroke-width="2">
      <circle cx="0.5" cy="0.5" r="0.5" stroke="none"/>
      <circle cx="0.5" cy="0.5" r="0.5" fill="none"/>
    </g>
    <g id="Ellipse_273" data-name="Ellipse 273" transform="translate(208.657 317)" fill="none" stroke="#10519a" stroke-width="2">
      <ellipse cx="0.5" rx="0.5" stroke="none"/>
      <ellipse cx="0.5" rx="0.5" ry="1" fill="none"/>
    </g>
    <g id="Ellipse_282" data-name="Ellipse 282" transform="translate(212.657 312)" fill="none" stroke="#10519a" stroke-width="2">
      <ellipse cy="0.5" ry="0.5" stroke="none"/>
      <ellipse cy="0.5" rx="1" ry="0.5" fill="none"/>
    </g>
    <g id="Ellipse_281" data-name="Ellipse 281" transform="translate(205.657 317)" fill="none" stroke="#10519a" stroke-width="2">
      <circle cx="0.5" cy="0.5" r="0.5" stroke="none"/>
      <circle cx="0.5" cy="0.5" r="0.5" fill="none"/>
    </g>
    <g id="Ellipse_280" data-name="Ellipse 280" transform="translate(205.657 314)" fill="none" stroke="#10519a" stroke-width="2">
      <ellipse cx="0.5" cy="1.5" rx="0.5" ry="1.5" stroke="none"/>
      <ellipse cx="0.5" cy="1.5" rx="0.5" ry="0.5" fill="none"/>
    </g>
    <g id="Ellipse_251" data-name="Ellipse 251" transform="translate(196.657 308)" fill="none" stroke="#10519a" stroke-width="2">
      <ellipse cy="1" ry="1" stroke="none"/>
      <ellipse cy="1" rx="1" fill="none"/>
    </g>
    <g id="Ellipse_259" data-name="Ellipse 259" transform="translate(206.657 312)" fill="none" stroke="#10519a" stroke-width="2">
      <circle cx="0.5" cy="0.5" r="0.5" stroke="none"/>
      <circle cx="0.5" cy="0.5" r="0.5" fill="none"/>
    </g>
    <g id="Ellipse_260" data-name="Ellipse 260" transform="translate(196.657 313)" fill="none" stroke="#10519a" stroke-width="2">
      <ellipse cy="0.5" ry="0.5" stroke="none"/>
      <ellipse cy="0.5" rx="1" ry="0.5" fill="none"/>
    </g>
    <g id="Ellipse_286" data-name="Ellipse 286" transform="translate(193.657 321)" fill="none" stroke="#10519a" stroke-width="2">
      <ellipse cx="1.5" cy="0.5" rx="1.5" ry="0.5" stroke="none"/>
      <ellipse cx="1.5" cy="0.5" rx="0.5" ry="0.5" fill="none"/>
    </g>
    <g id="Ellipse_275" data-name="Ellipse 275" transform="translate(203.657 321)" fill="none" stroke="#10519a" stroke-width="2">
      <ellipse cx="1" cy="0.5" rx="1" ry="0.5" stroke="none"/>
      <ellipse cx="1" cy="0.5" ry="0.5" fill="none"/>
    </g>
    <g id="Ellipse_261" data-name="Ellipse 261" transform="translate(198.657 317)" fill="none" stroke="#10519a" stroke-width="2">
      <circle cx="0.5" cy="0.5" r="0.5" stroke="none"/>
      <circle cx="0.5" cy="0.5" r="0.5" fill="none"/>
    </g>
    <g id="Ellipse_287" data-name="Ellipse 287" transform="translate(196.657 320)" fill="none" stroke="#10519a" stroke-width="2">
      <ellipse cx="1" cy="0.5" rx="1" ry="0.5" stroke="none"/>
      <ellipse cx="1" cy="0.5" ry="0.5" fill="none"/>
    </g>
    <g id="Ellipse_277" data-name="Ellipse 277" transform="translate(207.657 322)" fill="none" stroke="#10519a" stroke-width="2">
      <ellipse cx="0.5" cy="1" rx="0.5" ry="1" stroke="none"/>
      <ellipse cx="0.5" cy="1" rx="0.5" fill="none"/>
    </g>
    <g id="Ellipse_250" data-name="Ellipse 250" transform="translate(191.657 307)" fill="none" stroke="#10519a" stroke-width="2">
      <circle cx="0.5" cy="0.5" r="0.5" stroke="none"/>
      <circle cx="0.5" cy="0.5" r="0.5" fill="none"/>
    </g>
    <g id="Ellipse_238" data-name="Ellipse 238" transform="translate(196.657 317)" fill="none" stroke="#10519a" stroke-width="2">
      <circle stroke="none"/>
      <circle r="1" fill="none"/>
    </g>
    <g id="Ellipse_276" data-name="Ellipse 276" transform="translate(206.657 320)" fill="none" stroke="#10519a" stroke-width="2">
      <circle cx="0.5" cy="0.5" r="0.5" stroke="none"/>
      <circle cx="0.5" cy="0.5" r="0.5" fill="none"/>
    </g>
    <g id="Ellipse_241" data-name="Ellipse 241" transform="translate(199.657 314)" fill="none" stroke="#10519a" stroke-width="2">
      <ellipse cx="0.5" cy="1.5" rx="0.5" ry="1.5" stroke="none"/>
      <ellipse cx="0.5" cy="1.5" rx="0.5" ry="0.5" fill="none"/>
    </g>
    <g id="Ellipse_278" data-name="Ellipse 278" transform="translate(209.657 321)" fill="none" stroke="#10519a" stroke-width="2">
      <ellipse cx="1.5" cy="0.5" rx="1.5" ry="0.5" stroke="none"/>
      <ellipse cx="1.5" cy="0.5" rx="0.5" ry="0.5" fill="none"/>
    </g>
    <g id="Ellipse_237" data-name="Ellipse 237" transform="translate(189.657 311)" fill="none" stroke="#10519a" stroke-width="2">
      <circle cx="0.5" cy="0.5" r="0.5" stroke="none"/>
      <circle cx="0.5" cy="0.5" r="0.5" fill="none"/>
    </g>
    <g id="Ellipse_271" data-name="Ellipse 271" transform="translate(200.657 317)" fill="none" stroke="#10519a" stroke-width="2">
      <circle cx="0.5" cy="0.5" r="0.5" stroke="none"/>
      <circle cx="0.5" cy="0.5" r="0.5" fill="none"/>
    </g>
    <g id="Ellipse_246" data-name="Ellipse 246" transform="translate(188.657 312)" fill="none" stroke="#10519a" stroke-width="2">
      <circle cx="0.5" cy="0.5" r="0.5" stroke="none"/>
      <circle cx="0.5" cy="0.5" r="0.5" fill="none"/>
    </g>
    <g id="Ellipse_270" data-name="Ellipse 270" transform="translate(199.657 321)" fill="none" stroke="#10519a" stroke-width="2">
      <circle cx="0.5" cy="0.5" r="0.5" stroke="none"/>
      <circle cx="0.5" cy="0.5" r="0.5" fill="none"/>
    </g>
    <g id="Ellipse_245" data-name="Ellipse 245" transform="translate(186.657 313)" fill="none" stroke="#10519a" stroke-width="2">
      <ellipse cx="1" cy="0.5" rx="1" ry="0.5" stroke="none"/>
      <ellipse cx="1" cy="0.5" ry="0.5" fill="none"/>
    </g>
    <g id="Ellipse_269" data-name="Ellipse 269" transform="translate(198.657 322)" fill="none" stroke="#10519a" stroke-width="2">
      <ellipse cx="0.5" cy="1" rx="0.5" ry="1" stroke="none"/>
      <ellipse cx="0.5" cy="1" rx="0.5" fill="none"/>
    </g>
    <g id="Ellipse_244" data-name="Ellipse 244" transform="translate(188.657 310)" fill="none" stroke="#10519a" stroke-width="2">
      <circle cx="0.5" cy="0.5" r="0.5" stroke="none"/>
      <circle cx="0.5" cy="0.5" r="0.5" fill="none"/>
    </g>
  </g>
</svg>
